<svg xmlns="http://www.w3.org/2000/svg" width="512" height="512" viewBox="0 0 511.992 511.992"><g xmlns="http://www.w3.org/2000/svg" fill="#e2ecff"><path d="M511.727 18.269c1.629-6.988-4.504-13.327-11.547-11.954-1.257.245-2.079.41-2.135.435L15.723 201.993C6.42 205.76.402 214.335.019 224.375c-.383 10.041 4.965 19.052 13.957 23.517l109.996 54.612 29.991 191.321a10 10 0 0010.117 12.035 10 10 0 008.746-4.6l114.431-98.037 89.277 58.523a25.129 25.129 0 0023.19 2.284 25.173 25.173 0 0015.115-17.783l96.872-427.918a.537.537 0 00.016-.06zM254.032 204.632c-3.324-4.409-9.595-5.288-14.005-1.965l-108.063 81.475-109.093-54.164c-2.702-1.342-2.905-3.832-2.866-4.841.039-1.008.429-3.474 3.223-4.605l413.339-167.32-124.53 94.866c-4.394 3.347-5.242 9.622-1.895 14.015 3.348 4.395 9.622 5.244 14.015 1.896l92.176-70.219-218.846 236.432a9.96 9.96 0 00-2.223 3.601l-28.715 111.175-22.691-144.756 108.209-81.585c4.411-3.324 5.29-9.595 1.965-14.005zm-71.991 262.396l28.894-113.838 58.908 38.616zm213.294-25.198c-.522 2.301-2.167 3.278-3.102 3.655-.931.376-2.78.814-4.733-.467l-167.44-109.76L484.016 50.087z" data-original="#000000"/><path d="M282.22 193.231c-4.231 0-8.115-2.774-9.47-6.786-1.317-3.897-.066-8.335 3.126-10.942 3.159-2.58 7.649-2.963 11.212-.993 3.601 1.991 5.611 6.127 5.015 10.191-.709 4.837-4.997 8.53-9.883 8.53z" data-original="#000000"/></g></svg>