<svg xmlns="http://www.w3.org/2000/svg" width="512" height="512" viewBox="0 0 512.001 512.001"><path d="M509.805 456.771L309.033 256 509.804 55.23a7.5 7.5 0 000-10.607L467.377 2.197a7.5 7.5 0 00-10.607 0L256 202.967 55.23 2.197a7.501 7.501 0 00-10.606 0L2.197 44.623a7.5 7.5 0 000 10.607L202.967 256 2.197 456.77a7.5 7.5 0 000 10.607l42.427 42.427a7.501 7.501 0 0010.606 0l31.82-31.819a7.5 7.5 0 00-10.606-10.607l-26.517 26.517-31.82-31.82 200.77-200.77a7.5 7.5 0 000-10.607L18.107 49.927l31.82-31.82 200.77 200.771a7.502 7.502 0 0010.607 0l200.77-200.771 31.82 31.82-200.771 200.77a7.5 7.5 0 000 10.607l200.771 200.77-31.82 31.82-200.77-200.771a7.502 7.502 0 00-10.607 0L97.962 445.859a7.5 7.5 0 0010.606 10.607L256 309.034l200.77 200.771a7.48 7.48 0 005.304 2.196 7.481 7.481 0 005.304-2.196l42.427-42.427a7.5 7.5 0 000-10.607z" fill="#e2ecff" data-original="#000000" xmlns="http://www.w3.org/2000/svg"/></svg>