<svg xmlns="http://www.w3.org/2000/svg" width="512" height="512" viewBox="0 0 480 480"><g xmlns="http://www.w3.org/2000/svg" fill="#3c4c69"><path d="M240 480C107.452 480 0 372.548 0 240S107.452 0 240 0c132.486.15 239.85 107.514 240 240 0 132.548-107.452 240-240 240zm0-464C116.288 16 16 116.288 16 240s100.288 224 224 224c123.653-.141 223.859-100.347 224-224 0-123.712-100.288-224-224-224z" data-original="#000000"/><path d="M181.888 381.424a8 8 0 01-11.312-11.312L300.688 240 170.576 109.888a8 8 0 015.656-13.656 8 8 0 015.656 2.344l135.768 135.768a8 8 0 010 11.312L181.888 381.424z" data-original="#000000"/></g></svg>