<svg xmlns="http://www.w3.org/2000/svg" width="512" height="512" viewBox="0 0 490.8 490.8"><path xmlns="http://www.w3.org/2000/svg" d="M355.115 487.672c4.237 4.093 10.99 3.975 15.083-.262 3.992-4.134 3.992-10.687 0-14.82L143.083 245.454 370.219 18.339c4.237-4.093 4.354-10.845.262-15.083-4.093-4.237-10.845-4.354-15.083-.262-.089.086-.176.173-.262.262L120.469 237.923c-4.164 4.165-4.164 10.917 0 15.083l234.646 234.666z" fill="#f44336" data-original="#f44336"/><path xmlns="http://www.w3.org/2000/svg" d="M362.667.12a10.667 10.667 0 017.552 18.219L143.083 245.454l227.136 227.114c4.171 4.17 4.171 10.933 0 15.104-4.171 4.17-10.933 4.17-15.104 0L120.448 253.005c-4.164-4.165-4.164-10.917 0-15.083L355.115 3.256c2-2.007 4.718-3.136 7.552-3.136z" data-original="#000000"/></svg>