<svg viewBox="0 0 512.001 512.001" xmlns="http://www.w3.org/2000/svg"><g fill="#ce3921"><path d="M116.364 309.621c-23.332 0-42.314 18.982-42.314 42.314s18.982 42.314 42.314 42.314 42.314-18.982 42.314-42.314-18.982-42.314-42.314-42.314zm0 63.471c-11.666 0-21.157-9.491-21.157-21.157s9.491-21.157 21.157-21.157 21.157 9.491 21.157 21.157-9.491 21.157-21.157 21.157zm187.569-10.579c-5.833 0-10.578 4.745-10.578 10.578s4.745 10.578 10.578 10.578 10.579-4.745 10.579-10.578-4.747-10.578-10.579-10.578z"/><path d="M509.558 405.075l-88.859-106.974a10.58 10.58 0 00-18.087 10.354c4.256 11.781 6.622 26.064 5.445 40.97l-57.286-67.745-7.065-52.221a10.578 10.578 0 00-10.482-9.16h-27.209L282.528 96.595h14.729c5.841 0 10.578-4.736 10.578-10.579 0-5.842-4.737-10.578-10.578-10.578H111.074c-5.841 0-10.579 4.736-10.579 10.578 0 5.843 4.737 10.579 10.579 10.579h8.463v61.881l-42.252-13.572c-.006-.002-.012-.002-.018-.005-1.185-.489-2.896-.501-3.207-.501H10.579C4.737 144.397 0 149.133 0 154.976v200.992c0 5.843 4.737 10.579 10.579 10.579h22.445c6.945 39.722 41.659 70.017 83.34 70.017s76.395-30.296 83.34-70.017h41.095a64.079 64.079 0 00-.336 6.546c0 34.998 28.473 63.471 63.471 63.471s63.471-28.473 63.471-63.471a63.065 63.065 0 00-8.563-31.778l-2.791-20.628 46.168 54.596c-3.931 10.173-9.923 20.141-18.527 29.315a10.578 10.578 0 007.716 17.816h110.016c4.101 0 7.833-2.371 9.577-6.084a10.586 10.586 0 00-1.443-11.255zM284.479 220.298H191.82v-83.251h76.852l15.807 83.251zM140.694 96.595h120.299l3.663 19.295h-83.415c-5.841 0-10.578 4.736-10.578 10.579v48.428l-29.969-9.626V96.595zm0 90.899l29.969 9.626v23.178h-29.969v-32.804zm-56.066-18.009l34.909 11.213v39.6H84.628v-50.813zm31.736 245.921c-34.998 0-63.471-28.473-63.471-63.471s28.473-63.471 63.471-63.471 63.471 28.473 63.471 63.471-28.473 63.471-63.471 63.471zm130.474-70.017h-46.124c-3.357-43.614-39.891-78.082-84.35-78.082s-80.993 34.468-84.35 78.082H21.157V165.554h42.314v65.322c0 5.843 4.737 10.578 10.579 10.578h249.93l3.498 25.852h-52.437c-5.841 0-10.578 4.736-10.578 10.578s4.737 10.578 10.578 10.578h55.299l3.908 28.878a63.076 63.076 0 00-30.315-7.721c-25.071.002-46.788 14.616-57.095 35.77zm57.095 70.017c-23.332 0-42.314-18.982-42.314-42.314s18.982-42.314 42.314-42.314 42.314 18.982 42.314 42.314-18.983 42.314-42.314 42.314zm108.914-14.15c11.983-19.261 16.674-40.041 16.67-59.43l49.367 59.43h-66.037z"/><path d="M237.223 267.307h-1.058c-5.841 0-10.578 4.736-10.578 10.578s4.737 10.578 10.578 10.578h1.058c5.841 0 10.578-4.736 10.578-10.578s-4.736-10.578-10.578-10.578z"/></g></svg>