<svg viewBox="0 0 63 63" xmlns="http://www.w3.org/2000/svg"><g fill="#ce3921"><path d="M26.468 53.015H8.298c-2.799 0-5.1-1.819-5.598-4.423L.102 34.85a5.789 5.789 0 011.239-4.781A5.648 5.648 0 015.7 27.997h55.8a1.5 1.5 0 011.482 1.737c-.037.232-4.062 23.281-36.514 23.281zM5.7 31c-.785 0-1.531.358-2.047.983a2.793 2.793 0 00-.604 2.307l2.599 13.741c.229 1.203 1.27 1.982 2.65 1.982h18.17c24.986 0 31.562-13.991 33.116-19.013H5.7z"/><path d="M51.258 31h-36.75a4.256 4.256 0 01-4.189-5.055l1.7-12.061c.369-1.953 2.034-3.899 4.201-3.899h11.966c21.845 0 24.535 19.13 24.56 19.323A1.504 1.504 0 0151.258 31zM16.22 12.987c-.494 0-1.109.687-1.242 1.388l-1.7 12.06c-.108.576.112.936.252 1.105.141.171.457.457.978.457h34.905c-1.131-4.266-5.54-15.01-21.227-15.01H16.22z"/><path d="M26.139 30.499a1.5 1.5 0 01-1.5-1.501v-6.47c0-3.024 2.107-6.539 5.375-6.539h14.198a1.5 1.5 0 010 3.002H30.014c-1.31 0-2.375 1.885-2.375 3.537v6.47a1.5 1.5 0 01-1.5 1.501z"/><path d="M36.139 30.499a1.5 1.5 0 01-1.5-1.501V17.99a1.5 1.5 0 113 0v11.008a1.5 1.5 0 01-1.5 1.501z"/><path d="M35.212 25.996h-9a1.5 1.5 0 010-3.002h9a1.5 1.5 0 010 3.002z"/></g></svg>