<svg viewBox="0 0 512 512" xmlns="http://www.w3.org/2000/svg"><path d="M408.05 490.629h-2.671c-5.902 0-10.686 4.784-10.686 10.686S399.477 512 405.378 512h2.671c5.902 0 10.686-4.784 10.686-10.686s-4.784-10.685-10.685-10.685zm85.485-151.381h-4.274V70.326c11.705-6.327 19.677-18.712 19.677-32.926 0-20.622-16.778-37.4-37.4-37.4-18.97 0-34.677 14.202-37.073 32.53L49.82 212.742a10.685 10.685 0 00-6.152 9.676v107.925h-29.92c-5.902 0-10.686 4.784-10.686 10.686v101.514c0 5.902 4.784 10.686 10.686 10.686h29.109a39.522 39.522 0 00-4.532 18.406v.588c0 21.933 17.844 39.777 39.777 39.777h283.999c5.902 0 10.686-4.784 10.686-10.686s-4.784-10.686-10.686-10.686h-66.509a39.522 39.522 0 004.532-18.406v-.588a39.51 39.51 0 00-4.532-18.406h17.355c5.902 0 10.686-4.784 10.686-10.686v-66.693L410.803 270l.009-.01.144-.175c.022-.028.041-.058.063-.086.193-.239.376-.488.549-.746.037-.056.076-.11.112-.167.375-.581.699-1.204.961-1.869.036-.092.067-.185.1-.278.05-.14.107-.277.152-.42l36.224-114.294c1.782-5.626-1.333-11.632-6.957-13.415-5.627-1.783-11.632 1.333-13.415 6.957l-32.094 101.262-52.634-32.333L461.465 73.411c2.076.581 4.221.994 6.424 1.209v275.314c0 5.902 4.784 10.686 10.686 10.686h14.96c5.902 0 10.686-4.784 10.686-10.686s-4.784-10.686-10.686-10.686zM65.039 249.839l87.623 95.354v11.864H88.548v-16.029c0-5.902-4.784-10.686-10.686-10.686H65.039v-80.503zm213.714 222.384c0 10.149-8.257 18.406-18.406 18.406H78.103c-10.149 0-18.406-8.257-18.406-18.406v-.588c0-10.149 8.257-18.406 18.406-18.406h182.244c10.149 0 18.406 8.257 18.406 18.406v.588zm23.509-40.366H24.434v-80.143h42.743v16.029c0 5.902 4.784 10.686 10.686 10.686h85.485c5.902 0 10.686-4.784 10.686-10.686v-16.029h37.047v47.733c0 5.902 4.784 10.686 10.686 10.686h80.495v21.724zm0-43.095h-69.81v-37.047H286.5c8.691 0 15.761 7.071 15.761 15.761v21.286zm84.393-123.058l-68.221 82.841-.002.011c-4.627-7.779-12.009-13.734-20.795-16.503l.004-.001 35.847-99.006 53.167 32.658zm-66.959-55.468l.001.01a10.671 10.671 0 00-1.838 3.191l-42.328 116.906h-80.494l67.967-51.718c4.696-3.573 5.607-10.278 2.032-14.975-3.574-4.697-10.279-5.608-14.975-2.032l-85.436 65.011-92.548-100.716L438.226 54.369a37.574 37.574 0 005.051 7.485L319.696 210.236zM471.538 53.428c-8.838 0-16.029-7.19-16.029-16.029 0-8.838 7.19-16.029 16.029-16.029 8.838 0 16.029 7.19 16.029 16.029-.001 8.839-7.191 16.029-16.029 16.029z" fill="#ce3921"/></svg>