<svg viewBox="0 0 512 512" xmlns="http://www.w3.org/2000/svg"><g fill="#ce3921"><path d="M390.043 291.983h-1.648c-6.067 0-10.987 4.92-10.987 10.987s4.92 10.987 10.987 10.987h1.648c6.067 0 10.987-4.92 10.987-10.987s-4.92-10.987-10.987-10.987zm-230.73 97.074h-.549c-6.067 0-10.987 4.92-10.987 10.987s4.92 10.987 10.987 10.987h.549c6.067 0 10.987-4.92 10.987-10.987s-4.92-10.987-10.987-10.987z"/><path d="M459.262 222.161v-36.805l10.324-15.954c3.297-5.095 1.839-11.897-3.256-15.193-5.097-3.298-11.897-1.839-15.193 3.255l-12.086 18.678a10.983 10.983 0 00-1.762 5.969v33.86a87.522 87.522 0 00-12.415-.899h-53.508V122.78h2.197c6.067 0 10.987-4.92 10.987-10.987s-4.92-10.987-10.987-10.987H216.446c-6.067 0-10.987 4.92-10.987 10.987s4.92 10.987 10.987 10.987h3.296v180.19s.014 2.296.04 3.106L119.67 232.585a10.992 10.992 0 00-6.502-2.129H10.987C4.92 230.456 0 235.376 0 241.443s4.92 10.987 10.987 10.987h98.581l119.255 87.544a77.828 77.828 0 0012.818 17.545 35.475 35.475 0 00-4.867 17.965c0 4.804.959 9.385 2.686 13.572h-37.846c-6.067 0-10.987 4.92-10.987 10.987s4.92 10.987 10.987 10.987c0 0 69.737.161 70.867.161 17.787 0 32.575-13.074 35.268-30.116h97.569c2.692 17.042 17.479 30.116 35.268 30.116s32.575-13.074 35.268-30.116h25.161c6.067 0 10.987-4.92 10.987-10.987v-67.889c-.002-35.832-21.752-66.673-52.74-80.038zm-217.545-99.38h107.674v101.233l-26.216 67.969h-22.127v-41.324c0-6.067-4.92-10.987-10.987-10.987h-48.343V122.781zm0 138.865h37.356v30.337h-37.356v-30.337zm30.764 127.573c-7.573 0-13.734-6.16-13.734-13.734s6.16-13.734 13.734-13.734c7.573 0 13.734 6.16 13.734 13.734s-6.161 13.734-13.734 13.734zm168.103 0c-7.573 0-13.734-6.16-13.734-13.734s6.16-13.734 13.734-13.734 13.734 6.16 13.734 13.734-6.161 13.734-13.734 13.734zm49.442-30.116h-17.73c-5.948-11.468-17.925-19.326-31.712-19.326-13.787 0-25.765 7.858-31.712 19.326H304.194c-5.948-11.468-17.927-19.326-31.712-19.326a35.485 35.485 0 00-14.457 3.069c-7.744-7.728-13.234-17.713-15.345-28.888h88.032c4.542 0 8.616-2.795 10.251-7.033l26.953-69.877h56.956c32.449 0 59.428 23.848 64.346 54.936h-58.157c-6.067 0-10.987 4.92-10.987 10.987s4.92 10.987 10.987 10.987h58.965v45.145z"/></g></svg>