<svg viewBox="0 0 512 512" xmlns="http://www.w3.org/2000/svg"><g fill="#ce3921"><path d="M512 238.933c0-9.426-7.641-17.067-17.067-17.067v-102.4c0-9.426-7.641-17.067-17.067-17.067H384c-.119 0-.213.06-.324.068a8.32 8.32 0 00-2.842.538l-.154.06-37.137 14.865a16.972 16.972 0 00-10.743 15.846v2.756h-42.667c-4.713 0-8.533 3.82-8.533 8.533s3.82 8.533 8.533 8.533H332.8v2.756a16.98 16.98 0 0010.735 15.846l31.932 12.774v36.89h-85.333a8.533 8.533 0 00-8.533-8.533h-17.067v-51.2a8.533 8.533 0 00-8.533-8.533h-51.2a8.533 8.533 0 00-8.533 8.533v51.2H179.2a8.533 8.533 0 00-8.533 8.533h-59.733v-25.6H128a8.533 8.533 0 008.533-8.533H153.6c9.426 0 17.067-7.641 17.067-17.067v-51.2c0-9.426-7.641-17.067-17.067-17.067h-17.067A8.533 8.533 0 00128 93.864H17.067C7.641 93.867 0 101.508 0 110.933V281.6c0 .205.102.384.119.589.017.205-.068.35-.043.538l16.085 120.585c1.125 8.482 8.357 14.82 16.913 14.822h60.792c9.426 0 17.067-7.641 17.067-17.067h264.533c0 9.426 7.641 17.067 17.067 17.067h86.391c8.553-.002 15.784-6.335 16.913-14.814l16.085-120.593c0-.188-.051-.358-.043-.538s.121-.384.121-.589v-42.667zM136.533 119.467H153.6v51.2h-17.067v-51.2zm256 59.733v-59.733h85.333v102.4h-85.333V179.2zm-42.666-22.852v-22.562l25.6-10.24v43.042l-25.6-10.24zm-136.534 14.319h34.133v42.667h-34.133v-42.667zm-25.6 59.733h85.334v51.2h-85.333v-51.2zm-17.066 8.533v34.133h-59.733v-34.133h59.733zm-76.8 162.134H33.075L18.287 290.133h75.58v110.934zM42.667 179.2c-4.713 0-8.533 3.82-8.533 8.533s3.82 8.533 8.533 8.533h51.2v76.8h-76.8V110.933h102.4V179.2h-76.8zm332.8 204.8H110.933v-51.2h264.533V384zm0-68.267H110.933v-25.6h59.733a8.533 8.533 0 008.533 8.533h102.4a8.533 8.533 0 008.533-8.533h85.333v25.6zm103.466 85.334h-86.4V290.133h101.18l-14.78 110.934zm16-128h-204.8v-34.133h204.8v34.133z"/><path d="M187.733 366.933h162.133c4.713 0 8.533-3.82 8.533-8.533s-3.82-8.533-8.533-8.533H187.733a8.533 8.533 0 000 17.066zm-51.2 0H153.6a8.533 8.533 0 000-17.066h-17.067a8.533 8.533 0 000 17.066zm110.934-119.466h-34.133a8.533 8.533 0 000 17.066h34.133A8.533 8.533 0 00256 256a8.533 8.533 0 00-8.533-8.533z"/></g></svg>