<svg viewBox="0 0 512 512" xmlns="http://www.w3.org/2000/svg"><g fill="#ce3921"><path d="M511.331 357.702V234.117a10.674 10.674 0 00-10.237-10.666l-91.487-3.749v-79.538c0-5.896-4.779-10.675-10.675-10.675h-10.675v-23.725l9.831-14.352c3.332-4.865 2.089-11.508-2.776-14.839-4.863-3.332-11.508-2.09-14.839 2.776l-11.698 17.08a10.671 10.671 0 00-1.868 6.032v27.029h-10.675c-5.896 0-10.675 4.779-10.675 10.675v76.913l-28.289-1.159-14.747-136.667a10.675 10.675 0 00-10.613-9.531H155.375a10.674 10.674 0 00-10.613 9.53l-11.539 106.943a129.234 129.234 0 00-5.124-.114C57.465 186.08 0 243.545 0 314.179s57.465 128.1 128.1 128.1c49.627 0 94.174-28.269 115.451-72.59h119.055c1.137 40.218 34.183 72.59 74.67 72.59 41.203 0 74.725-33.521 74.725-74.725a75.175 75.175 0 00-.67-9.852zM366.907 150.838h21.35v67.988l-21.35-.875v-67.113zM164.959 91.072h27.19v112.164a127.394 127.394 0 00-37.733-14.434l10.543-97.73zm61.831 263.862c-16.576 40.091-55.313 65.995-98.69 65.995-58.862 0-106.75-47.888-106.75-106.75s47.888-106.75 106.75-106.75c4.414 0 8.898.275 13.308.816 20.068 2.494 38.955 10.648 54.618 23.577 22.516 18.598 36.57 45.899 38.562 74.928.173 2.434.262 4.934.262 7.429 0 14.129-2.711 27.839-8.06 40.755zM213.5 218.697V91.072h68.823l1.53 14.183-30.131 30.131c-4.169 4.169-4.169 10.928 0 15.098a10.641 10.641 0 007.548 3.127c2.732 0 5.464-1.042 7.548-3.127l17.976-17.976 10.173 94.273v68.535h-42.146c0-41.717-41.215-76.524-41.321-76.619zm38.095 129.641c2.842-10.268 4.369-20.866 4.574-31.673h51.473c5.896 0 10.675-4.779 10.675-10.675v-68.664l171.664 7.035v70.274c-13.522-13.469-32.157-21.808-52.706-21.808-34.561 0-63.706 23.59-72.209 55.51H251.595zm185.68 72.591c-29.431 0-53.375-23.944-53.375-53.375s23.944-53.375 53.375-53.375 53.375 23.944 53.375 53.375-23.943 53.375-53.375 53.375z"/><path d="M437.275 335.529c-17.659 0-32.025 14.366-32.025 32.025s14.366 32.025 32.025 32.025 32.025-14.366 32.025-32.025-14.366-32.025-32.025-32.025zm0 42.7c-5.886 0-10.675-4.789-10.675-10.675 0-5.886 4.789-10.675 10.675-10.675s10.675 4.789 10.675 10.675c0 5.886-4.788 10.675-10.675 10.675zM128.1 228.779c-47.089 0-85.4 38.31-85.4 85.4 0 47.089 38.31 85.4 85.4 85.4 47.089 0 85.4-38.31 85.4-85.4-.001-47.089-38.311-85.4-85.4-85.4zm0 149.45c-35.317 0-64.05-28.733-64.05-64.05s28.733-64.05 64.05-64.05c35.317 0 64.05 28.733 64.05 64.05s-28.733 64.05-64.05 64.05zm222.75-82.909h-2.49c-5.896 0-10.675 4.779-10.675 10.675 0 5.896 4.78 10.675 10.675 10.675h2.49c5.896 0 10.675-4.779 10.675-10.675 0-5.896-4.78-10.675-10.675-10.675zM230.341 158.767l-.289.289c-4.164 4.173-4.159 10.931.014 15.097a10.637 10.637 0 007.541 3.12c2.735 0 5.471-1.045 7.556-3.134l.289-.289c4.164-4.173 4.159-10.931-.014-15.097-4.172-4.165-10.93-4.159-15.097.014z"/></g></svg>